<svg id="Layer_1" data-name="Layer 1" xmlns="http://www.w3.org/2000/svg" viewBox="0 0 512 512"><defs><style>.cls-1{fill:#141f38;}</style></defs><title>credit-card-front-outline</title><path class="cls-1" d="M448,89.6H64a64.19,64.19,0,0,0-64,64V358.4a64.19,64.19,0,0,0,64,64H448a64.19,64.19,0,0,0,64-64V153.6A64.19,64.19,0,0,0,448,89.6Zm38.4,268.8A38.44,38.44,0,0,1,448,396.8H64a38.44,38.44,0,0,1-38.4-38.4V153.6A38.44,38.44,0,0,1,64,115.2H448a38.44,38.44,0,0,1,38.4,38.4ZM140.8,345.6A12.8,12.8,0,0,1,128,358.4H76.8a12.8,12.8,0,1,1,0-25.6H128A12.8,12.8,0,0,1,140.8,345.6Zm102.4,0a12.8,12.8,0,0,1-12.8,12.8H179.2a12.8,12.8,0,1,1,0-25.6h51.2A12.8,12.8,0,0,1,243.2,345.6Zm102.4,0a12.8,12.8,0,0,1-12.8,12.8H281.6a12.8,12.8,0,1,1,0-25.6h51.2A12.8,12.8,0,0,1,345.6,345.6Zm102.4,0a12.8,12.8,0,0,1-12.8,12.8H384a12.8,12.8,0,1,1,0-25.6h51.2A12.8,12.8,0,0,1,448,345.6Zm-44.8-192a44.66,44.66,0,0,0-32,13.46,44.8,44.8,0,1,0,0,62.68,44.8,44.8,0,1,0,32-76.14Zm-64,64a19.2,19.2,0,1,1,19.2-19.2A19.22,19.22,0,0,1,339.2,217.6Zm64,0a19.2,19.2,0,1,1,19.2-19.2A19.22,19.22,0,0,1,403.2,217.6ZM166.4,184.8a31.29,31.29,0,0,0-31.2-31.2h-40A31.29,31.29,0,0,0,64,184.8V212a31.29,31.29,0,0,0,31.2,31.2h40A31.29,31.29,0,0,0,166.4,212ZM140.8,212a5.68,5.68,0,0,1-5.6,5.6h-40a5.68,5.68,0,0,1-5.6-5.6V184.8a5.68,5.68,0,0,1,5.6-5.6h40a5.68,5.68,0,0,1,5.6,5.6Z"/></svg>