<svg id="Layer_1" data-name="Layer 1" xmlns="http://www.w3.org/2000/svg" viewBox="0 0 512 512"><defs><style>.cls-1{fill:#cad8dd;}.cls-2{fill:#a1b9bf;}.cls-3{fill:#e85454;}.cls-4{fill:#ffa840;}.cls-5{fill:#dde5e8;}</style></defs><title>credit-card-front-flat</title><rect class="cls-1" y="89.6" width="512" height="332.8" rx="64" ry="64"/><path class="cls-2" d="M128,358.4H76.8a12.8,12.8,0,0,1,0-25.6H128a12.8,12.8,0,1,1,0,25.6Z"/><path class="cls-2" d="M230.4,358.4H179.2a12.8,12.8,0,0,1,0-25.6h51.2a12.8,12.8,0,1,1,0,25.6Z"/><path class="cls-2" d="M332.8,358.4H281.6a12.8,12.8,0,0,1,0-25.6h51.2a12.8,12.8,0,1,1,0,25.6Z"/><path class="cls-2" d="M435.2,358.4H384a12.8,12.8,0,0,1,0-25.6h51.2a12.8,12.8,0,1,1,0,25.6Z"/><circle class="cls-3" cx="339.2" cy="198.4" r="44.8"/><circle class="cls-4" cx="403.2" cy="198.4" r="44.8"/><rect class="cls-5" x="64" y="153.6" width="102.4" height="89.6" rx="31.2" ry="31.2"/></svg>